<mxfile host="app.diagrams.net" modified="2024-02-26T15:39:29.713Z" agent="Mozilla/5.0 (Windows NT 10.0; Win64; x64) AppleWebKit/537.36 (KHTML, like Gecko) Chrome/121.0.0.0 Safari/537.36" etag="bw1qFYny24SwXcWiRQbH" version="23.1.6" type="device" pages="3">
  <diagram name="ER" id="h29Nw3KeTRyWj0B-VwC_">
    <mxGraphModel dx="1222" dy="1005" grid="0" gridSize="10" guides="1" tooltips="1" connect="1" arrows="1" fold="1" page="1" pageScale="1" pageWidth="1654" pageHeight="1169" math="0" shadow="0">
      <root>
        <mxCell id="0" />
        <mxCell id="1" parent="0" />
        <mxCell id="ehkrvynhBIzAsUOhevUl-11" style="edgeStyle=orthogonalEdgeStyle;rounded=0;orthogonalLoop=1;jettySize=auto;html=1;exitX=1;exitY=0.5;exitDx=0;exitDy=0;entryX=0;entryY=0.5;entryDx=0;entryDy=0;endArrow=none;endFill=0;" parent="1" source="ehkrvynhBIzAsUOhevUl-1" target="ehkrvynhBIzAsUOhevUl-10" edge="1">
          <mxGeometry relative="1" as="geometry" />
        </mxCell>
        <mxCell id="ehkrvynhBIzAsUOhevUl-16" value="&amp;nbsp;1&amp;nbsp;" style="edgeLabel;html=1;align=center;verticalAlign=middle;resizable=0;points=[];" parent="ehkrvynhBIzAsUOhevUl-11" vertex="1" connectable="0">
          <mxGeometry x="-0.5429" relative="1" as="geometry">
            <mxPoint x="88" as="offset" />
          </mxGeometry>
        </mxCell>
        <mxCell id="ehkrvynhBIzAsUOhevUl-72" style="rounded=0;orthogonalLoop=1;jettySize=auto;html=1;exitX=1;exitY=0;exitDx=0;exitDy=0;entryX=0;entryY=1;entryDx=0;entryDy=0;endArrow=none;endFill=0;" parent="1" source="ehkrvynhBIzAsUOhevUl-1" target="ehkrvynhBIzAsUOhevUl-36" edge="1">
          <mxGeometry relative="1" as="geometry" />
        </mxCell>
        <mxCell id="ehkrvynhBIzAsUOhevUl-73" style="rounded=0;orthogonalLoop=1;jettySize=auto;html=1;exitX=0.5;exitY=0;exitDx=0;exitDy=0;endArrow=none;endFill=0;" parent="1" source="ehkrvynhBIzAsUOhevUl-1" target="ehkrvynhBIzAsUOhevUl-35" edge="1">
          <mxGeometry relative="1" as="geometry" />
        </mxCell>
        <mxCell id="ehkrvynhBIzAsUOhevUl-74" style="rounded=0;orthogonalLoop=1;jettySize=auto;html=1;exitX=0;exitY=0;exitDx=0;exitDy=0;entryX=1;entryY=1;entryDx=0;entryDy=0;endArrow=none;endFill=0;" parent="1" source="ehkrvynhBIzAsUOhevUl-1" target="ehkrvynhBIzAsUOhevUl-34" edge="1">
          <mxGeometry relative="1" as="geometry" />
        </mxCell>
        <mxCell id="ehkrvynhBIzAsUOhevUl-75" style="rounded=0;orthogonalLoop=1;jettySize=auto;html=1;entryX=1;entryY=0;entryDx=0;entryDy=0;endArrow=none;endFill=0;" parent="1" source="ehkrvynhBIzAsUOhevUl-1" target="ehkrvynhBIzAsUOhevUl-33" edge="1">
          <mxGeometry relative="1" as="geometry" />
        </mxCell>
        <mxCell id="ehkrvynhBIzAsUOhevUl-77" style="rounded=0;orthogonalLoop=1;jettySize=auto;html=1;exitX=0.5;exitY=1;exitDx=0;exitDy=0;entryX=0.5;entryY=0;entryDx=0;entryDy=0;endArrow=none;endFill=0;" parent="1" source="ehkrvynhBIzAsUOhevUl-1" target="ehkrvynhBIzAsUOhevUl-37" edge="1">
          <mxGeometry relative="1" as="geometry" />
        </mxCell>
        <mxCell id="ehkrvynhBIzAsUOhevUl-78" style="rounded=0;orthogonalLoop=1;jettySize=auto;html=1;exitX=1;exitY=1;exitDx=0;exitDy=0;entryX=0;entryY=0;entryDx=0;entryDy=0;endArrow=none;endFill=0;" parent="1" source="ehkrvynhBIzAsUOhevUl-1" target="ehkrvynhBIzAsUOhevUl-38" edge="1">
          <mxGeometry relative="1" as="geometry" />
        </mxCell>
        <mxCell id="ehkrvynhBIzAsUOhevUl-1" value="User" style="rounded=1;arcSize=10;whiteSpace=wrap;html=1;align=center;" parent="1" vertex="1">
          <mxGeometry x="297" y="419" width="100" height="40" as="geometry" />
        </mxCell>
        <mxCell id="ehkrvynhBIzAsUOhevUl-80" style="rounded=0;orthogonalLoop=1;jettySize=auto;html=1;exitX=0.5;exitY=1;exitDx=0;exitDy=0;entryX=0.5;entryY=0;entryDx=0;entryDy=0;endArrow=none;endFill=0;" parent="1" source="ehkrvynhBIzAsUOhevUl-2" target="ehkrvynhBIzAsUOhevUl-44" edge="1">
          <mxGeometry relative="1" as="geometry" />
        </mxCell>
        <mxCell id="ehkrvynhBIzAsUOhevUl-81" style="rounded=0;orthogonalLoop=1;jettySize=auto;html=1;exitX=0;exitY=0.5;exitDx=0;exitDy=0;endArrow=none;endFill=0;" parent="1" source="ehkrvynhBIzAsUOhevUl-2" target="ehkrvynhBIzAsUOhevUl-43" edge="1">
          <mxGeometry relative="1" as="geometry" />
        </mxCell>
        <mxCell id="ehkrvynhBIzAsUOhevUl-84" style="rounded=0;orthogonalLoop=1;jettySize=auto;html=1;exitX=0.5;exitY=0;exitDx=0;exitDy=0;entryX=0.5;entryY=1;entryDx=0;entryDy=0;endArrow=none;endFill=0;" parent="1" source="ehkrvynhBIzAsUOhevUl-2" target="ehkrvynhBIzAsUOhevUl-39" edge="1">
          <mxGeometry relative="1" as="geometry" />
        </mxCell>
        <mxCell id="ehkrvynhBIzAsUOhevUl-2" value="Model" style="rounded=1;arcSize=10;whiteSpace=wrap;html=1;align=center;" parent="1" vertex="1">
          <mxGeometry x="302" y="919" width="100" height="40" as="geometry" />
        </mxCell>
        <mxCell id="ehkrvynhBIzAsUOhevUl-8" style="rounded=0;orthogonalLoop=1;jettySize=auto;html=1;exitX=0;exitY=1;exitDx=0;exitDy=0;entryX=1;entryY=0;entryDx=0;entryDy=0;endArrow=none;endFill=0;" parent="1" source="ehkrvynhBIzAsUOhevUl-3" target="ehkrvynhBIzAsUOhevUl-6" edge="1">
          <mxGeometry relative="1" as="geometry" />
        </mxCell>
        <mxCell id="ehkrvynhBIzAsUOhevUl-18" value="&amp;nbsp;1&amp;nbsp;" style="edgeLabel;html=1;align=center;verticalAlign=middle;resizable=0;points=[];" parent="ehkrvynhBIzAsUOhevUl-8" vertex="1" connectable="0">
          <mxGeometry x="-0.674" y="1" relative="1" as="geometry">
            <mxPoint x="-234" y="140" as="offset" />
          </mxGeometry>
        </mxCell>
        <mxCell id="ehkrvynhBIzAsUOhevUl-14" style="edgeStyle=orthogonalEdgeStyle;rounded=0;orthogonalLoop=1;jettySize=auto;html=1;exitX=0.5;exitY=1;exitDx=0;exitDy=0;entryX=0.5;entryY=0;entryDx=0;entryDy=0;endArrow=none;endFill=0;" parent="1" source="ehkrvynhBIzAsUOhevUl-3" target="ehkrvynhBIzAsUOhevUl-21" edge="1">
          <mxGeometry relative="1" as="geometry">
            <mxPoint x="1645.33" y="519" as="targetPoint" />
          </mxGeometry>
        </mxCell>
        <mxCell id="ehkrvynhBIzAsUOhevUl-24" value="1" style="edgeLabel;html=1;align=center;verticalAlign=middle;resizable=0;points=[];" parent="ehkrvynhBIzAsUOhevUl-14" vertex="1" connectable="0">
          <mxGeometry x="0.1931" y="1" relative="1" as="geometry">
            <mxPoint as="offset" />
          </mxGeometry>
        </mxCell>
        <mxCell id="ehkrvynhBIzAsUOhevUl-29" style="edgeStyle=orthogonalEdgeStyle;rounded=0;orthogonalLoop=1;jettySize=auto;html=1;exitX=0.5;exitY=0;exitDx=0;exitDy=0;entryX=0.5;entryY=1;entryDx=0;entryDy=0;endArrow=none;endFill=0;" parent="1" source="ehkrvynhBIzAsUOhevUl-3" target="ehkrvynhBIzAsUOhevUl-27" edge="1">
          <mxGeometry relative="1" as="geometry" />
        </mxCell>
        <mxCell id="ehkrvynhBIzAsUOhevUl-30" value="1" style="edgeLabel;html=1;align=center;verticalAlign=middle;resizable=0;points=[];" parent="ehkrvynhBIzAsUOhevUl-29" vertex="1" connectable="0">
          <mxGeometry x="-0.0286" relative="1" as="geometry">
            <mxPoint as="offset" />
          </mxGeometry>
        </mxCell>
        <mxCell id="ehkrvynhBIzAsUOhevUl-97" style="rounded=0;orthogonalLoop=1;jettySize=auto;html=1;exitX=0;exitY=0;exitDx=0;exitDy=0;entryX=1;entryY=1;entryDx=0;entryDy=0;endArrow=none;endFill=0;" parent="1" source="ehkrvynhBIzAsUOhevUl-3" target="ehkrvynhBIzAsUOhevUl-49" edge="1">
          <mxGeometry relative="1" as="geometry" />
        </mxCell>
        <mxCell id="ehkrvynhBIzAsUOhevUl-98" style="rounded=0;orthogonalLoop=1;jettySize=auto;html=1;exitX=1;exitY=0;exitDx=0;exitDy=0;entryX=0.5;entryY=1;entryDx=0;entryDy=0;endArrow=none;endFill=0;" parent="1" source="ehkrvynhBIzAsUOhevUl-3" target="ehkrvynhBIzAsUOhevUl-50" edge="1">
          <mxGeometry relative="1" as="geometry" />
        </mxCell>
        <mxCell id="ehkrvynhBIzAsUOhevUl-99" style="rounded=0;orthogonalLoop=1;jettySize=auto;html=1;exitX=1;exitY=0.5;exitDx=0;exitDy=0;entryX=0;entryY=1;entryDx=0;entryDy=0;endArrow=none;endFill=0;" parent="1" source="ehkrvynhBIzAsUOhevUl-3" target="ehkrvynhBIzAsUOhevUl-51" edge="1">
          <mxGeometry relative="1" as="geometry" />
        </mxCell>
        <mxCell id="ehkrvynhBIzAsUOhevUl-100" style="rounded=0;orthogonalLoop=1;jettySize=auto;html=1;exitX=1;exitY=1;exitDx=0;exitDy=0;entryX=0;entryY=0.5;entryDx=0;entryDy=0;endArrow=none;endFill=0;" parent="1" source="ehkrvynhBIzAsUOhevUl-3" target="ehkrvynhBIzAsUOhevUl-52" edge="1">
          <mxGeometry relative="1" as="geometry" />
        </mxCell>
        <mxCell id="ehkrvynhBIzAsUOhevUl-101" style="rounded=0;orthogonalLoop=1;jettySize=auto;html=1;exitX=0.75;exitY=1;exitDx=0;exitDy=0;entryX=0;entryY=0;entryDx=0;entryDy=0;endArrow=none;endFill=0;" parent="1" source="ehkrvynhBIzAsUOhevUl-3" target="ehkrvynhBIzAsUOhevUl-53" edge="1">
          <mxGeometry relative="1" as="geometry" />
        </mxCell>
        <mxCell id="ehkrvynhBIzAsUOhevUl-102" style="rounded=0;orthogonalLoop=1;jettySize=auto;html=1;exitX=0.25;exitY=1;exitDx=0;exitDy=0;entryX=1;entryY=0;entryDx=0;entryDy=0;endArrow=none;endFill=0;" parent="1" source="ehkrvynhBIzAsUOhevUl-3" target="ehkrvynhBIzAsUOhevUl-54" edge="1">
          <mxGeometry relative="1" as="geometry" />
        </mxCell>
        <mxCell id="ehkrvynhBIzAsUOhevUl-3" value="Task" style="rounded=1;arcSize=10;whiteSpace=wrap;html=1;align=center;" parent="1" vertex="1">
          <mxGeometry x="1208.46" y="419" width="100" height="40" as="geometry" />
        </mxCell>
        <mxCell id="ehkrvynhBIzAsUOhevUl-9" style="rounded=0;orthogonalLoop=1;jettySize=auto;html=1;exitX=0;exitY=1;exitDx=0;exitDy=0;entryX=1;entryY=0;entryDx=0;entryDy=0;endArrow=none;endFill=0;" parent="1" source="ehkrvynhBIzAsUOhevUl-6" target="ehkrvynhBIzAsUOhevUl-2" edge="1">
          <mxGeometry relative="1" as="geometry" />
        </mxCell>
        <mxCell id="ehkrvynhBIzAsUOhevUl-19" value="&amp;nbsp;N&amp;nbsp;" style="edgeLabel;html=1;align=center;verticalAlign=middle;resizable=0;points=[];" parent="ehkrvynhBIzAsUOhevUl-9" vertex="1" connectable="0">
          <mxGeometry x="0.48" relative="1" as="geometry">
            <mxPoint x="150" y="-77" as="offset" />
          </mxGeometry>
        </mxCell>
        <mxCell id="ehkrvynhBIzAsUOhevUl-6" value="Use" style="shape=rhombus;perimeter=rhombusPerimeter;whiteSpace=wrap;html=1;align=center;" parent="1" vertex="1">
          <mxGeometry x="737" y="669" width="120" height="80" as="geometry" />
        </mxCell>
        <mxCell id="ehkrvynhBIzAsUOhevUl-12" style="edgeStyle=orthogonalEdgeStyle;rounded=0;orthogonalLoop=1;jettySize=auto;html=1;exitX=1;exitY=0.5;exitDx=0;exitDy=0;entryX=0;entryY=0.5;entryDx=0;entryDy=0;endArrow=none;endFill=0;" parent="1" source="ehkrvynhBIzAsUOhevUl-10" target="ehkrvynhBIzAsUOhevUl-3" edge="1">
          <mxGeometry relative="1" as="geometry">
            <mxPoint x="1435.33" y="439" as="sourcePoint" />
          </mxGeometry>
        </mxCell>
        <mxCell id="ehkrvynhBIzAsUOhevUl-17" value="&amp;nbsp;N&amp;nbsp;" style="edgeLabel;html=1;align=center;verticalAlign=middle;resizable=0;points=[];" parent="ehkrvynhBIzAsUOhevUl-12" vertex="1" connectable="0">
          <mxGeometry x="0.5375" y="1" relative="1" as="geometry">
            <mxPoint x="-103" y="1" as="offset" />
          </mxGeometry>
        </mxCell>
        <mxCell id="ehkrvynhBIzAsUOhevUl-69" style="edgeStyle=orthogonalEdgeStyle;rounded=0;orthogonalLoop=1;jettySize=auto;html=1;exitX=0.5;exitY=0;exitDx=0;exitDy=0;entryX=0.5;entryY=1;entryDx=0;entryDy=0;endArrow=none;endFill=0;" parent="1" source="ehkrvynhBIzAsUOhevUl-10" target="ehkrvynhBIzAsUOhevUl-55" edge="1">
          <mxGeometry relative="1" as="geometry" />
        </mxCell>
        <mxCell id="ehkrvynhBIzAsUOhevUl-10" value="Create" style="shape=rhombus;perimeter=rhombusPerimeter;whiteSpace=wrap;html=1;align=center;" parent="1" vertex="1">
          <mxGeometry x="737" y="399" width="120" height="80" as="geometry" />
        </mxCell>
        <mxCell id="ehkrvynhBIzAsUOhevUl-21" value="Produce" style="shape=rhombus;double=1;perimeter=rhombusPerimeter;whiteSpace=wrap;html=1;align=center;" parent="1" vertex="1">
          <mxGeometry x="1198.46" y="649" width="120" height="60" as="geometry" />
        </mxCell>
        <mxCell id="ehkrvynhBIzAsUOhevUl-23" style="edgeStyle=orthogonalEdgeStyle;rounded=0;orthogonalLoop=1;jettySize=auto;html=1;exitX=0.5;exitY=0;exitDx=0;exitDy=0;entryX=0.5;entryY=1;entryDx=0;entryDy=0;endArrow=none;endFill=0;" parent="1" source="ehkrvynhBIzAsUOhevUl-22" target="ehkrvynhBIzAsUOhevUl-21" edge="1">
          <mxGeometry relative="1" as="geometry" />
        </mxCell>
        <mxCell id="ehkrvynhBIzAsUOhevUl-25" value="N" style="edgeLabel;html=1;align=center;verticalAlign=middle;resizable=0;points=[];" parent="ehkrvynhBIzAsUOhevUl-23" vertex="1" connectable="0">
          <mxGeometry x="-0.065" relative="1" as="geometry">
            <mxPoint as="offset" />
          </mxGeometry>
        </mxCell>
        <mxCell id="ehkrvynhBIzAsUOhevUl-85" style="rounded=0;orthogonalLoop=1;jettySize=auto;html=1;exitX=0.25;exitY=0;exitDx=0;exitDy=0;endArrow=none;endFill=0;" parent="1" source="ehkrvynhBIzAsUOhevUl-22" target="ehkrvynhBIzAsUOhevUl-57" edge="1">
          <mxGeometry relative="1" as="geometry" />
        </mxCell>
        <mxCell id="ehkrvynhBIzAsUOhevUl-86" style="rounded=0;orthogonalLoop=1;jettySize=auto;html=1;exitX=0;exitY=0;exitDx=0;exitDy=0;entryX=1;entryY=1;entryDx=0;entryDy=0;endArrow=none;endFill=0;" parent="1" source="ehkrvynhBIzAsUOhevUl-22" target="ehkrvynhBIzAsUOhevUl-58" edge="1">
          <mxGeometry relative="1" as="geometry" />
        </mxCell>
        <mxCell id="ehkrvynhBIzAsUOhevUl-87" style="rounded=0;orthogonalLoop=1;jettySize=auto;html=1;exitX=0;exitY=0.25;exitDx=0;exitDy=0;entryX=1;entryY=0.5;entryDx=0;entryDy=0;endArrow=none;endFill=0;" parent="1" source="ehkrvynhBIzAsUOhevUl-22" target="ehkrvynhBIzAsUOhevUl-59" edge="1">
          <mxGeometry relative="1" as="geometry" />
        </mxCell>
        <mxCell id="ehkrvynhBIzAsUOhevUl-88" style="rounded=0;orthogonalLoop=1;jettySize=auto;html=1;exitX=0;exitY=0.5;exitDx=0;exitDy=0;entryX=1;entryY=0.5;entryDx=0;entryDy=0;endArrow=none;endFill=0;" parent="1" source="ehkrvynhBIzAsUOhevUl-22" target="ehkrvynhBIzAsUOhevUl-60" edge="1">
          <mxGeometry relative="1" as="geometry" />
        </mxCell>
        <mxCell id="ehkrvynhBIzAsUOhevUl-89" style="rounded=0;orthogonalLoop=1;jettySize=auto;html=1;exitX=0;exitY=1;exitDx=0;exitDy=0;entryX=1;entryY=0;entryDx=0;entryDy=0;endArrow=none;endFill=0;" parent="1" source="ehkrvynhBIzAsUOhevUl-22" target="ehkrvynhBIzAsUOhevUl-61" edge="1">
          <mxGeometry relative="1" as="geometry" />
        </mxCell>
        <mxCell id="ehkrvynhBIzAsUOhevUl-90" style="rounded=0;orthogonalLoop=1;jettySize=auto;html=1;exitX=0.5;exitY=1;exitDx=0;exitDy=0;endArrow=none;endFill=0;" parent="1" source="ehkrvynhBIzAsUOhevUl-22" target="ehkrvynhBIzAsUOhevUl-68" edge="1">
          <mxGeometry relative="1" as="geometry" />
        </mxCell>
        <mxCell id="ehkrvynhBIzAsUOhevUl-92" style="rounded=0;orthogonalLoop=1;jettySize=auto;html=1;exitX=1;exitY=1;exitDx=0;exitDy=0;entryX=0;entryY=0;entryDx=0;entryDy=0;endArrow=none;endFill=0;" parent="1" source="ehkrvynhBIzAsUOhevUl-22" target="ehkrvynhBIzAsUOhevUl-66" edge="1">
          <mxGeometry relative="1" as="geometry" />
        </mxCell>
        <mxCell id="ehkrvynhBIzAsUOhevUl-93" style="rounded=0;orthogonalLoop=1;jettySize=auto;html=1;exitX=1;exitY=0.75;exitDx=0;exitDy=0;entryX=0;entryY=0.5;entryDx=0;entryDy=0;endArrow=none;endFill=0;" parent="1" source="ehkrvynhBIzAsUOhevUl-22" target="ehkrvynhBIzAsUOhevUl-65" edge="1">
          <mxGeometry relative="1" as="geometry" />
        </mxCell>
        <mxCell id="ehkrvynhBIzAsUOhevUl-95" style="rounded=0;orthogonalLoop=1;jettySize=auto;html=1;exitX=0.75;exitY=0;exitDx=0;exitDy=0;entryX=0;entryY=1;entryDx=0;entryDy=0;endArrow=none;endFill=0;" parent="1" source="ehkrvynhBIzAsUOhevUl-22" target="ehkrvynhBIzAsUOhevUl-62" edge="1">
          <mxGeometry relative="1" as="geometry" />
        </mxCell>
        <mxCell id="ehkrvynhBIzAsUOhevUl-96" style="rounded=0;orthogonalLoop=1;jettySize=auto;html=1;exitX=1;exitY=0;exitDx=0;exitDy=0;entryX=0;entryY=1;entryDx=0;entryDy=0;endArrow=none;endFill=0;" parent="1" source="ehkrvynhBIzAsUOhevUl-22" target="ehkrvynhBIzAsUOhevUl-63" edge="1">
          <mxGeometry relative="1" as="geometry" />
        </mxCell>
        <mxCell id="ehkrvynhBIzAsUOhevUl-22" value="Output" style="shape=ext;margin=3;double=1;whiteSpace=wrap;html=1;align=center;" parent="1" vertex="1">
          <mxGeometry x="1208.46" y="912.46" width="100" height="40" as="geometry" />
        </mxCell>
        <mxCell id="ehkrvynhBIzAsUOhevUl-26" value="Input" style="shape=ext;margin=3;double=1;whiteSpace=wrap;html=1;align=center;" parent="1" vertex="1">
          <mxGeometry x="1208.46" y="29" width="100" height="40" as="geometry" />
        </mxCell>
        <mxCell id="ehkrvynhBIzAsUOhevUl-28" style="edgeStyle=orthogonalEdgeStyle;rounded=0;orthogonalLoop=1;jettySize=auto;html=1;exitX=0.5;exitY=0;exitDx=0;exitDy=0;entryX=0.5;entryY=1;entryDx=0;entryDy=0;endArrow=none;endFill=0;" parent="1" source="ehkrvynhBIzAsUOhevUl-27" target="ehkrvynhBIzAsUOhevUl-26" edge="1">
          <mxGeometry relative="1" as="geometry" />
        </mxCell>
        <mxCell id="ehkrvynhBIzAsUOhevUl-31" value="N" style="edgeLabel;html=1;align=center;verticalAlign=middle;resizable=0;points=[];" parent="ehkrvynhBIzAsUOhevUl-28" vertex="1" connectable="0">
          <mxGeometry x="-0.0267" relative="1" as="geometry">
            <mxPoint as="offset" />
          </mxGeometry>
        </mxCell>
        <mxCell id="ehkrvynhBIzAsUOhevUl-27" value="Own" style="shape=rhombus;double=1;perimeter=rhombusPerimeter;whiteSpace=wrap;html=1;align=center;" parent="1" vertex="1">
          <mxGeometry x="1198.46" y="199" width="120" height="60" as="geometry" />
        </mxCell>
        <mxCell id="ehkrvynhBIzAsUOhevUl-33" value="email" style="ellipse;whiteSpace=wrap;html=1;align=center;" parent="1" vertex="1">
          <mxGeometry x="84" y="549" width="100" height="40" as="geometry" />
        </mxCell>
        <mxCell id="ehkrvynhBIzAsUOhevUl-34" value="password" style="ellipse;whiteSpace=wrap;html=1;align=center;" parent="1" vertex="1">
          <mxGeometry x="97" y="273" width="100" height="40" as="geometry" />
        </mxCell>
        <mxCell id="ehkrvynhBIzAsUOhevUl-35" value="last_login" style="ellipse;whiteSpace=wrap;html=1;align=center;" parent="1" vertex="1">
          <mxGeometry x="322" y="240" width="100" height="40" as="geometry" />
        </mxCell>
        <mxCell id="ehkrvynhBIzAsUOhevUl-36" value="create_at" style="ellipse;whiteSpace=wrap;html=1;align=center;" parent="1" vertex="1">
          <mxGeometry x="497" y="329" width="100" height="40" as="geometry" />
        </mxCell>
        <mxCell id="ehkrvynhBIzAsUOhevUl-37" value="role" style="ellipse;whiteSpace=wrap;html=1;align=center;" parent="1" vertex="1">
          <mxGeometry x="282" y="585" width="100" height="40" as="geometry" />
        </mxCell>
        <mxCell id="ehkrvynhBIzAsUOhevUl-38" value="is_active" style="ellipse;whiteSpace=wrap;html=1;align=center;" parent="1" vertex="1">
          <mxGeometry x="481" y="521.31" width="100" height="40" as="geometry" />
        </mxCell>
        <mxCell id="ehkrvynhBIzAsUOhevUl-39" value="name" style="ellipse;whiteSpace=wrap;html=1;align=center;fontStyle=4;" parent="1" vertex="1">
          <mxGeometry x="290" y="766" width="100" height="40" as="geometry" />
        </mxCell>
        <mxCell id="ehkrvynhBIzAsUOhevUl-43" value="version" style="ellipse;whiteSpace=wrap;html=1;align=center;" parent="1" vertex="1">
          <mxGeometry x="78" y="944" width="100" height="40" as="geometry" />
        </mxCell>
        <mxCell id="ehkrvynhBIzAsUOhevUl-44" value="source_ref" style="ellipse;whiteSpace=wrap;html=1;align=center;" parent="1" vertex="1">
          <mxGeometry x="356" y="1047" width="100" height="40" as="geometry" />
        </mxCell>
        <mxCell id="ehkrvynhBIzAsUOhevUl-70" style="edgeStyle=orthogonalEdgeStyle;rounded=0;orthogonalLoop=1;jettySize=auto;html=1;exitX=1;exitY=0.5;exitDx=0;exitDy=0;entryX=0;entryY=0.5;entryDx=0;entryDy=0;endArrow=none;endFill=0;" parent="1" source="ehkrvynhBIzAsUOhevUl-48" target="ehkrvynhBIzAsUOhevUl-26" edge="1">
          <mxGeometry relative="1" as="geometry" />
        </mxCell>
        <mxCell id="ehkrvynhBIzAsUOhevUl-48" value="source_ref" style="ellipse;whiteSpace=wrap;html=1;align=center;" parent="1" vertex="1">
          <mxGeometry x="988.46" y="29" width="100" height="40" as="geometry" />
        </mxCell>
        <mxCell id="ehkrvynhBIzAsUOhevUl-49" value="tid" style="ellipse;whiteSpace=wrap;html=1;align=center;fontStyle=4;" parent="1" vertex="1">
          <mxGeometry x="1008.46" y="349" width="100" height="40" as="geometry" />
        </mxCell>
        <mxCell id="ehkrvynhBIzAsUOhevUl-50" value="name" style="ellipse;whiteSpace=wrap;html=1;align=center;" parent="1" vertex="1">
          <mxGeometry x="1325" y="285" width="100" height="40" as="geometry" />
        </mxCell>
        <mxCell id="ehkrvynhBIzAsUOhevUl-51" value="start_time" style="ellipse;whiteSpace=wrap;html=1;align=center;" parent="1" vertex="1">
          <mxGeometry x="1437" y="369" width="100" height="40" as="geometry" />
        </mxCell>
        <mxCell id="ehkrvynhBIzAsUOhevUl-52" value="finish_time" style="ellipse;whiteSpace=wrap;html=1;align=center;" parent="1" vertex="1">
          <mxGeometry x="1437" y="479" width="100" height="40" as="geometry" />
        </mxCell>
        <mxCell id="ehkrvynhBIzAsUOhevUl-53" value="task_type" style="ellipse;whiteSpace=wrap;html=1;align=center;" parent="1" vertex="1">
          <mxGeometry x="1318.46" y="561.31" width="100" height="40" as="geometry" />
        </mxCell>
        <mxCell id="ehkrvynhBIzAsUOhevUl-54" value="status" style="ellipse;whiteSpace=wrap;html=1;align=center;" parent="1" vertex="1">
          <mxGeometry x="1098.46" y="549" width="100" height="40" as="geometry" />
        </mxCell>
        <mxCell id="ehkrvynhBIzAsUOhevUl-55" value="create_at" style="ellipse;whiteSpace=wrap;html=1;align=center;" parent="1" vertex="1">
          <mxGeometry x="747" y="309" width="100" height="40" as="geometry" />
        </mxCell>
        <mxCell id="ehkrvynhBIzAsUOhevUl-57" value="p1_x" style="ellipse;whiteSpace=wrap;html=1;align=center;" parent="1" vertex="1">
          <mxGeometry x="1098.46" y="709" width="100" height="40" as="geometry" />
        </mxCell>
        <mxCell id="ehkrvynhBIzAsUOhevUl-58" value="p1_y" style="ellipse;whiteSpace=wrap;html=1;align=center;" parent="1" vertex="1">
          <mxGeometry x="966" y="754" width="100" height="40" as="geometry" />
        </mxCell>
        <mxCell id="ehkrvynhBIzAsUOhevUl-59" value="p1_w" style="ellipse;whiteSpace=wrap;html=1;align=center;" parent="1" vertex="1">
          <mxGeometry x="899" y="845" width="100" height="40" as="geometry" />
        </mxCell>
        <mxCell id="ehkrvynhBIzAsUOhevUl-60" value="p1_h" style="ellipse;whiteSpace=wrap;html=1;align=center;" parent="1" vertex="1">
          <mxGeometry x="917" y="964" width="100" height="40" as="geometry" />
        </mxCell>
        <mxCell id="ehkrvynhBIzAsUOhevUl-61" value="p1_predict" style="ellipse;whiteSpace=wrap;html=1;align=center;" parent="1" vertex="1">
          <mxGeometry x="1023" y="1055" width="100" height="40" as="geometry" />
        </mxCell>
        <mxCell id="ehkrvynhBIzAsUOhevUl-62" value="p2_x" style="ellipse;whiteSpace=wrap;html=1;align=center;" parent="1" vertex="1">
          <mxGeometry x="1335" y="723" width="100" height="40" as="geometry" />
        </mxCell>
        <mxCell id="ehkrvynhBIzAsUOhevUl-63" value="p2_y" style="ellipse;whiteSpace=wrap;html=1;align=center;" parent="1" vertex="1">
          <mxGeometry x="1462" y="771" width="100" height="40" as="geometry" />
        </mxCell>
        <mxCell id="ehkrvynhBIzAsUOhevUl-64" value="p2_w" style="ellipse;whiteSpace=wrap;html=1;align=center;" parent="1" vertex="1">
          <mxGeometry x="1534" y="857" width="100" height="40" as="geometry" />
        </mxCell>
        <mxCell id="ehkrvynhBIzAsUOhevUl-65" value="p2_h" style="ellipse;whiteSpace=wrap;html=1;align=center;" parent="1" vertex="1">
          <mxGeometry x="1499" y="964" width="100" height="40" as="geometry" />
        </mxCell>
        <mxCell id="ehkrvynhBIzAsUOhevUl-66" value="p1_predict" style="ellipse;whiteSpace=wrap;html=1;align=center;" parent="1" vertex="1">
          <mxGeometry x="1394" y="1055" width="100" height="40" as="geometry" />
        </mxCell>
        <mxCell id="ehkrvynhBIzAsUOhevUl-68" value="source_ref" style="ellipse;whiteSpace=wrap;html=1;align=center;" parent="1" vertex="1">
          <mxGeometry x="1208.46" y="1087" width="100" height="40" as="geometry" />
        </mxCell>
        <mxCell id="ehkrvynhBIzAsUOhevUl-94" style="rounded=0;orthogonalLoop=1;jettySize=auto;html=1;exitX=1;exitY=0.25;exitDx=0;exitDy=0;entryX=0.004;entryY=0.679;entryDx=0;entryDy=0;entryPerimeter=0;endArrow=none;endFill=0;" parent="1" source="ehkrvynhBIzAsUOhevUl-22" target="ehkrvynhBIzAsUOhevUl-64" edge="1">
          <mxGeometry relative="1" as="geometry" />
        </mxCell>
        <mxCell id="sDhM8g0epDCp2yKT2s25-2" style="rounded=0;orthogonalLoop=1;jettySize=auto;html=1;exitX=1;exitY=0.5;exitDx=0;exitDy=0;endArrow=none;endFill=0;" edge="1" parent="1" source="sDhM8g0epDCp2yKT2s25-1" target="ehkrvynhBIzAsUOhevUl-1">
          <mxGeometry relative="1" as="geometry" />
        </mxCell>
        <mxCell id="sDhM8g0epDCp2yKT2s25-1" value="&lt;u&gt;uid&lt;/u&gt;" style="ellipse;whiteSpace=wrap;html=1;align=center;" vertex="1" parent="1">
          <mxGeometry x="62" y="411" width="100" height="40" as="geometry" />
        </mxCell>
        <mxCell id="sDhM8g0epDCp2yKT2s25-4" style="rounded=0;orthogonalLoop=1;jettySize=auto;html=1;exitX=0.5;exitY=1;exitDx=0;exitDy=0;entryX=0.25;entryY=0;entryDx=0;entryDy=0;endArrow=none;endFill=0;" edge="1" parent="1" source="sDhM8g0epDCp2yKT2s25-3" target="ehkrvynhBIzAsUOhevUl-3">
          <mxGeometry relative="1" as="geometry" />
        </mxCell>
        <mxCell id="sDhM8g0epDCp2yKT2s25-3" value="create_at" style="ellipse;whiteSpace=wrap;html=1;align=center;" vertex="1" parent="1">
          <mxGeometry x="1123" y="289" width="100" height="40" as="geometry" />
        </mxCell>
        <mxCell id="sDhM8g0epDCp2yKT2s25-6" style="rounded=0;orthogonalLoop=1;jettySize=auto;html=1;exitX=0;exitY=0.5;exitDx=0;exitDy=0;entryX=1;entryY=0.5;entryDx=0;entryDy=0;endArrow=none;endFill=0;" edge="1" parent="1" source="sDhM8g0epDCp2yKT2s25-5" target="ehkrvynhBIzAsUOhevUl-26">
          <mxGeometry relative="1" as="geometry" />
        </mxCell>
        <mxCell id="sDhM8g0epDCp2yKT2s25-5" value="&lt;u&gt;index&lt;/u&gt;" style="ellipse;whiteSpace=wrap;html=1;align=center;" vertex="1" parent="1">
          <mxGeometry x="1437" y="29" width="100" height="40" as="geometry" />
        </mxCell>
      </root>
    </mxGraphModel>
  </diagram>
  <diagram id="sK77Df14-N4bIVtbLa6A" name="Normal">
    <mxGraphModel dx="2094" dy="1723" grid="0" gridSize="10" guides="1" tooltips="1" connect="1" arrows="1" fold="1" page="1" pageScale="1" pageWidth="1654" pageHeight="1169" math="0" shadow="0">
      <root>
        <mxCell id="0" />
        <mxCell id="1" parent="0" />
        <mxCell id="bqwQ9AqwLEj9jlzsBFg9-3" value="email" style="whiteSpace=wrap;html=1;align=center;" parent="1" vertex="1">
          <mxGeometry x="267" y="168" width="100" height="40" as="geometry" />
        </mxCell>
        <mxCell id="bqwQ9AqwLEj9jlzsBFg9-4" value="password" style="whiteSpace=wrap;html=1;align=center;" parent="1" vertex="1">
          <mxGeometry x="367" y="168" width="100" height="40" as="geometry" />
        </mxCell>
        <mxCell id="bqwQ9AqwLEj9jlzsBFg9-5" value="role" style="whiteSpace=wrap;html=1;align=center;" parent="1" vertex="1">
          <mxGeometry x="467" y="168" width="100" height="40" as="geometry" />
        </mxCell>
        <mxCell id="dhfBxoXllCMKDyNklm6e-1" value="is_active" style="whiteSpace=wrap;html=1;align=center;" parent="1" vertex="1">
          <mxGeometry x="567" y="168" width="100" height="40" as="geometry" />
        </mxCell>
        <mxCell id="dhfBxoXllCMKDyNklm6e-2" value="last_login" style="whiteSpace=wrap;html=1;align=center;" parent="1" vertex="1">
          <mxGeometry x="667" y="168" width="100" height="40" as="geometry" />
        </mxCell>
        <mxCell id="dhfBxoXllCMKDyNklm6e-3" value="create_at" style="whiteSpace=wrap;html=1;align=center;" parent="1" vertex="1">
          <mxGeometry x="764" y="168" width="100" height="40" as="geometry" />
        </mxCell>
        <mxCell id="R2iG0RkhZLPLWJXGyHI8-4" style="edgeStyle=orthogonalEdgeStyle;rounded=0;orthogonalLoop=1;jettySize=auto;html=1;exitX=0.5;exitY=0;exitDx=0;exitDy=0;entryX=0.5;entryY=0;entryDx=0;entryDy=0;" parent="1" source="LL0V21JLQJ-NjVPEZ8lJ-1" target="LL0V21JLQJ-NjVPEZ8lJ-4" edge="1">
          <mxGeometry relative="1" as="geometry">
            <Array as="points">
              <mxPoint x="217" y="322" />
              <mxPoint x="317" y="322" />
            </Array>
          </mxGeometry>
        </mxCell>
        <mxCell id="R2iG0RkhZLPLWJXGyHI8-5" style="edgeStyle=orthogonalEdgeStyle;rounded=0;orthogonalLoop=1;jettySize=auto;html=1;exitX=0.5;exitY=0;exitDx=0;exitDy=0;entryX=0.5;entryY=0;entryDx=0;entryDy=0;" parent="1" source="LL0V21JLQJ-NjVPEZ8lJ-1" target="LL0V21JLQJ-NjVPEZ8lJ-5" edge="1">
          <mxGeometry relative="1" as="geometry">
            <Array as="points">
              <mxPoint x="217" y="322" />
              <mxPoint x="416" y="322" />
              <mxPoint x="416" y="369" />
            </Array>
          </mxGeometry>
        </mxCell>
        <mxCell id="LL0V21JLQJ-NjVPEZ8lJ-1" value="&lt;u&gt;name&lt;/u&gt;" style="whiteSpace=wrap;html=1;align=center;" parent="1" vertex="1">
          <mxGeometry x="167" y="369" width="100" height="40" as="geometry" />
        </mxCell>
        <mxCell id="LL0V21JLQJ-NjVPEZ8lJ-4" value="version" style="whiteSpace=wrap;html=1;align=center;" parent="1" vertex="1">
          <mxGeometry x="267" y="369" width="100" height="40" as="geometry" />
        </mxCell>
        <mxCell id="LL0V21JLQJ-NjVPEZ8lJ-5" value="source_ref" style="whiteSpace=wrap;html=1;align=center;" parent="1" vertex="1">
          <mxGeometry x="367" y="369" width="100" height="40" as="geometry" />
        </mxCell>
        <mxCell id="jKhE6JL5Pe1JLl3PNGcN-1" style="edgeStyle=orthogonalEdgeStyle;rounded=0;orthogonalLoop=1;jettySize=auto;html=1;exitX=0.5;exitY=0;exitDx=0;exitDy=0;entryX=0.5;entryY=0;entryDx=0;entryDy=0;" parent="1" source="lqpHPcwCeVomYNVRctv2-11" target="lqpHPcwCeVomYNVRctv2-12" edge="1">
          <mxGeometry relative="1" as="geometry">
            <Array as="points">
              <mxPoint x="217" y="518" />
              <mxPoint x="317" y="518" />
            </Array>
          </mxGeometry>
        </mxCell>
        <mxCell id="jKhE6JL5Pe1JLl3PNGcN-3" style="edgeStyle=orthogonalEdgeStyle;rounded=0;orthogonalLoop=1;jettySize=auto;html=1;exitX=0.5;exitY=0;exitDx=0;exitDy=0;entryX=0.5;entryY=0;entryDx=0;entryDy=0;" parent="1" source="lqpHPcwCeVomYNVRctv2-11" target="lqpHPcwCeVomYNVRctv2-14" edge="1">
          <mxGeometry relative="1" as="geometry">
            <Array as="points">
              <mxPoint x="217" y="518" />
              <mxPoint x="517" y="518" />
            </Array>
          </mxGeometry>
        </mxCell>
        <mxCell id="jKhE6JL5Pe1JLl3PNGcN-4" style="edgeStyle=orthogonalEdgeStyle;rounded=0;orthogonalLoop=1;jettySize=auto;html=1;exitX=0.5;exitY=0;exitDx=0;exitDy=0;entryX=0.5;entryY=0;entryDx=0;entryDy=0;" parent="1" source="lqpHPcwCeVomYNVRctv2-11" target="lqpHPcwCeVomYNVRctv2-15" edge="1">
          <mxGeometry relative="1" as="geometry">
            <Array as="points">
              <mxPoint x="217" y="518" />
              <mxPoint x="617" y="518" />
            </Array>
          </mxGeometry>
        </mxCell>
        <mxCell id="jKhE6JL5Pe1JLl3PNGcN-5" style="edgeStyle=orthogonalEdgeStyle;rounded=0;orthogonalLoop=1;jettySize=auto;html=1;exitX=0.5;exitY=0;exitDx=0;exitDy=0;entryX=0.5;entryY=0;entryDx=0;entryDy=0;" parent="1" source="lqpHPcwCeVomYNVRctv2-11" target="lqpHPcwCeVomYNVRctv2-16" edge="1">
          <mxGeometry relative="1" as="geometry">
            <Array as="points">
              <mxPoint x="217" y="518" />
              <mxPoint x="714" y="518" />
            </Array>
          </mxGeometry>
        </mxCell>
        <mxCell id="jKhE6JL5Pe1JLl3PNGcN-6" style="edgeStyle=orthogonalEdgeStyle;rounded=0;orthogonalLoop=1;jettySize=auto;html=1;exitX=0.5;exitY=0;exitDx=0;exitDy=0;entryX=0.5;entryY=0;entryDx=0;entryDy=0;" parent="1" source="lqpHPcwCeVomYNVRctv2-11" target="5n_ie6Cg16jejQ5B6ELa-1" edge="1">
          <mxGeometry relative="1" as="geometry">
            <Array as="points">
              <mxPoint x="217" y="518" />
              <mxPoint x="814" y="518" />
            </Array>
          </mxGeometry>
        </mxCell>
        <mxCell id="jKhE6JL5Pe1JLl3PNGcN-7" style="edgeStyle=orthogonalEdgeStyle;rounded=0;orthogonalLoop=1;jettySize=auto;html=1;exitX=0.5;exitY=0;exitDx=0;exitDy=0;entryX=0.5;entryY=0;entryDx=0;entryDy=0;" parent="1" source="lqpHPcwCeVomYNVRctv2-11" target="5n_ie6Cg16jejQ5B6ELa-2" edge="1">
          <mxGeometry relative="1" as="geometry">
            <Array as="points">
              <mxPoint x="217" y="518" />
              <mxPoint x="914" y="518" />
            </Array>
          </mxGeometry>
        </mxCell>
        <mxCell id="8pLlDTbQzt-v3fuAkXPi-2" style="edgeStyle=orthogonalEdgeStyle;rounded=0;orthogonalLoop=1;jettySize=auto;html=1;exitX=0.5;exitY=0;exitDx=0;exitDy=0;entryX=0.5;entryY=0;entryDx=0;entryDy=0;" parent="1" source="lqpHPcwCeVomYNVRctv2-11" target="8pLlDTbQzt-v3fuAkXPi-1" edge="1">
          <mxGeometry relative="1" as="geometry">
            <Array as="points">
              <mxPoint x="217" y="518" />
              <mxPoint x="1014" y="518" />
            </Array>
          </mxGeometry>
        </mxCell>
        <mxCell id="lqpHPcwCeVomYNVRctv2-11" value="&lt;u&gt;tid&lt;/u&gt;" style="whiteSpace=wrap;html=1;align=center;" parent="1" vertex="1">
          <mxGeometry x="167" y="559" width="100" height="40" as="geometry" />
        </mxCell>
        <mxCell id="lqpHPcwCeVomYNVRctv2-12" value="name" style="whiteSpace=wrap;html=1;align=center;" parent="1" vertex="1">
          <mxGeometry x="267" y="559" width="100" height="40" as="geometry" />
        </mxCell>
        <mxCell id="lqpHPcwCeVomYNVRctv2-13" value="create_at" style="whiteSpace=wrap;html=1;align=center;" parent="1" vertex="1">
          <mxGeometry x="367" y="559" width="100" height="40" as="geometry" />
        </mxCell>
        <mxCell id="lqpHPcwCeVomYNVRctv2-14" value="uid" style="whiteSpace=wrap;html=1;align=center;" parent="1" vertex="1">
          <mxGeometry x="467" y="559" width="100" height="40" as="geometry" />
        </mxCell>
        <mxCell id="jKhE6JL5Pe1JLl3PNGcN-8" style="edgeStyle=orthogonalEdgeStyle;rounded=0;orthogonalLoop=1;jettySize=auto;html=1;" parent="1" edge="1">
          <mxGeometry relative="1" as="geometry">
            <mxPoint x="617" y="517" as="sourcePoint" />
            <mxPoint x="814" y="517" as="targetPoint" />
            <Array as="points">
              <mxPoint x="617" y="480" />
              <mxPoint x="814" y="480" />
            </Array>
          </mxGeometry>
        </mxCell>
        <mxCell id="lqpHPcwCeVomYNVRctv2-15" value="status" style="whiteSpace=wrap;html=1;align=center;" parent="1" vertex="1">
          <mxGeometry x="567" y="559" width="100" height="40" as="geometry" />
        </mxCell>
        <mxCell id="lqpHPcwCeVomYNVRctv2-16" value="task_type" style="whiteSpace=wrap;html=1;align=center;" parent="1" vertex="1">
          <mxGeometry x="664" y="559" width="100" height="40" as="geometry" />
        </mxCell>
        <mxCell id="5n_ie6Cg16jejQ5B6ELa-1" value="start_time" style="whiteSpace=wrap;html=1;align=center;" parent="1" vertex="1">
          <mxGeometry x="764" y="559" width="100" height="40" as="geometry" />
        </mxCell>
        <mxCell id="5n_ie6Cg16jejQ5B6ELa-2" value="finish_time" style="whiteSpace=wrap;html=1;align=center;" parent="1" vertex="1">
          <mxGeometry x="864" y="559" width="100" height="40" as="geometry" />
        </mxCell>
        <mxCell id="jKhE6JL5Pe1JLl3PNGcN-2" style="edgeStyle=orthogonalEdgeStyle;rounded=0;orthogonalLoop=1;jettySize=auto;html=1;exitX=0.5;exitY=0;exitDx=0;exitDy=0;entryX=0.5;entryY=0;entryDx=0;entryDy=0;" parent="1" source="lqpHPcwCeVomYNVRctv2-11" target="lqpHPcwCeVomYNVRctv2-13" edge="1">
          <mxGeometry relative="1" as="geometry">
            <Array as="points">
              <mxPoint x="217" y="518" />
              <mxPoint x="417" y="518" />
            </Array>
          </mxGeometry>
        </mxCell>
        <mxCell id="jKhE6JL5Pe1JLl3PNGcN-11" style="edgeStyle=orthogonalEdgeStyle;rounded=0;orthogonalLoop=1;jettySize=auto;html=1;" parent="1" edge="1">
          <mxGeometry relative="1" as="geometry">
            <mxPoint x="717" y="480" as="sourcePoint" />
            <mxPoint x="913.49" y="516.98" as="targetPoint" />
            <Array as="points">
              <mxPoint x="716.49" y="479.98" />
              <mxPoint x="913.49" y="479.98" />
            </Array>
          </mxGeometry>
        </mxCell>
        <mxCell id="H1ZyYy_X_Dz8UiBZ8473-7" style="edgeStyle=orthogonalEdgeStyle;rounded=0;orthogonalLoop=1;jettySize=auto;html=1;exitX=0.5;exitY=0;exitDx=0;exitDy=0;entryX=0.5;entryY=0;entryDx=0;entryDy=0;" parent="1" source="H1ZyYy_X_Dz8UiBZ8473-1" target="H1ZyYy_X_Dz8UiBZ8473-3" edge="1">
          <mxGeometry relative="1" as="geometry">
            <Array as="points">
              <mxPoint x="217" y="719.94" />
              <mxPoint x="417" y="719.94" />
            </Array>
          </mxGeometry>
        </mxCell>
        <mxCell id="H1ZyYy_X_Dz8UiBZ8473-8" style="edgeStyle=orthogonalEdgeStyle;rounded=0;orthogonalLoop=1;jettySize=auto;html=1;exitX=0.5;exitY=0;exitDx=0;exitDy=0;entryX=0.5;entryY=0;entryDx=0;entryDy=0;" parent="1" source="H1ZyYy_X_Dz8UiBZ8473-1" target="H1ZyYy_X_Dz8UiBZ8473-2" edge="1">
          <mxGeometry relative="1" as="geometry">
            <Array as="points">
              <mxPoint x="217" y="719.94" />
              <mxPoint x="317" y="719.94" />
            </Array>
          </mxGeometry>
        </mxCell>
        <mxCell id="H1ZyYy_X_Dz8UiBZ8473-1" value="&lt;u&gt;tid&lt;/u&gt;" style="whiteSpace=wrap;html=1;align=center;" parent="1" vertex="1">
          <mxGeometry x="167" y="766.94" width="100" height="40" as="geometry" />
        </mxCell>
        <mxCell id="H1ZyYy_X_Dz8UiBZ8473-9" style="edgeStyle=orthogonalEdgeStyle;rounded=0;orthogonalLoop=1;jettySize=auto;html=1;exitX=0.5;exitY=0;exitDx=0;exitDy=0;" parent="1" source="H1ZyYy_X_Dz8UiBZ8473-2" edge="1">
          <mxGeometry relative="1" as="geometry">
            <mxPoint x="417" y="718.94" as="targetPoint" />
            <Array as="points">
              <mxPoint x="317" y="676.94" />
              <mxPoint x="417" y="676.94" />
            </Array>
          </mxGeometry>
        </mxCell>
        <mxCell id="H1ZyYy_X_Dz8UiBZ8473-2" value="&lt;u&gt;index&lt;/u&gt;" style="whiteSpace=wrap;html=1;align=center;" parent="1" vertex="1">
          <mxGeometry x="267" y="766.94" width="100" height="40" as="geometry" />
        </mxCell>
        <mxCell id="H1ZyYy_X_Dz8UiBZ8473-3" value="source_ref" style="whiteSpace=wrap;html=1;align=center;" parent="1" vertex="1">
          <mxGeometry x="367" y="766.94" width="100" height="40" as="geometry" />
        </mxCell>
        <mxCell id="5z1vc-06m02WusBXPSte-30" style="edgeStyle=orthogonalEdgeStyle;rounded=0;orthogonalLoop=1;jettySize=auto;html=1;exitX=0.5;exitY=0;exitDx=0;exitDy=0;entryX=0.5;entryY=0;entryDx=0;entryDy=0;" parent="1" source="H1ZyYy_X_Dz8UiBZ8473-10" target="H1ZyYy_X_Dz8UiBZ8473-11" edge="1">
          <mxGeometry relative="1" as="geometry">
            <Array as="points">
              <mxPoint x="223" y="943" />
              <mxPoint x="323" y="943" />
            </Array>
          </mxGeometry>
        </mxCell>
        <mxCell id="H1ZyYy_X_Dz8UiBZ8473-10" value="&lt;u&gt;tid&lt;/u&gt;" style="whiteSpace=wrap;html=1;align=center;" parent="1" vertex="1">
          <mxGeometry x="173" y="992" width="100" height="40" as="geometry" />
        </mxCell>
        <mxCell id="5z1vc-06m02WusBXPSte-18" style="edgeStyle=orthogonalEdgeStyle;rounded=0;orthogonalLoop=1;jettySize=auto;html=1;exitX=0.5;exitY=0;exitDx=0;exitDy=0;entryX=0.5;entryY=0;entryDx=0;entryDy=0;" parent="1" source="H1ZyYy_X_Dz8UiBZ8473-11" target="H1ZyYy_X_Dz8UiBZ8473-12" edge="1">
          <mxGeometry relative="1" as="geometry">
            <Array as="points">
              <mxPoint x="323" y="943" />
              <mxPoint x="423" y="943" />
            </Array>
          </mxGeometry>
        </mxCell>
        <mxCell id="5z1vc-06m02WusBXPSte-20" style="edgeStyle=orthogonalEdgeStyle;rounded=0;orthogonalLoop=1;jettySize=auto;html=1;exitX=0.5;exitY=0;exitDx=0;exitDy=0;entryX=0.5;entryY=0;entryDx=0;entryDy=0;" parent="1" source="H1ZyYy_X_Dz8UiBZ8473-11" target="5z1vc-06m02WusBXPSte-2" edge="1">
          <mxGeometry relative="1" as="geometry">
            <Array as="points">
              <mxPoint x="323" y="943" />
              <mxPoint x="523" y="943" />
            </Array>
          </mxGeometry>
        </mxCell>
        <mxCell id="5z1vc-06m02WusBXPSte-21" style="edgeStyle=orthogonalEdgeStyle;rounded=0;orthogonalLoop=1;jettySize=auto;html=1;exitX=0.5;exitY=0;exitDx=0;exitDy=0;entryX=0.5;entryY=0;entryDx=0;entryDy=0;" parent="1" source="H1ZyYy_X_Dz8UiBZ8473-11" target="5z1vc-06m02WusBXPSte-3" edge="1">
          <mxGeometry relative="1" as="geometry">
            <Array as="points">
              <mxPoint x="323" y="943" />
              <mxPoint x="623" y="943" />
            </Array>
          </mxGeometry>
        </mxCell>
        <mxCell id="5z1vc-06m02WusBXPSte-22" style="edgeStyle=orthogonalEdgeStyle;rounded=0;orthogonalLoop=1;jettySize=auto;html=1;exitX=0.5;exitY=0;exitDx=0;exitDy=0;entryX=0.5;entryY=0;entryDx=0;entryDy=0;" parent="1" source="H1ZyYy_X_Dz8UiBZ8473-11" target="5z1vc-06m02WusBXPSte-4" edge="1">
          <mxGeometry relative="1" as="geometry">
            <Array as="points">
              <mxPoint x="323" y="943" />
              <mxPoint x="723" y="943" />
            </Array>
          </mxGeometry>
        </mxCell>
        <mxCell id="5z1vc-06m02WusBXPSte-23" style="edgeStyle=orthogonalEdgeStyle;rounded=0;orthogonalLoop=1;jettySize=auto;html=1;exitX=0.5;exitY=0;exitDx=0;exitDy=0;entryX=0.5;entryY=0;entryDx=0;entryDy=0;" parent="1" source="H1ZyYy_X_Dz8UiBZ8473-11" target="5z1vc-06m02WusBXPSte-5" edge="1">
          <mxGeometry relative="1" as="geometry">
            <Array as="points">
              <mxPoint x="323" y="943" />
              <mxPoint x="823" y="943" />
            </Array>
          </mxGeometry>
        </mxCell>
        <mxCell id="5z1vc-06m02WusBXPSte-24" style="edgeStyle=orthogonalEdgeStyle;rounded=0;orthogonalLoop=1;jettySize=auto;html=1;exitX=0.5;exitY=0;exitDx=0;exitDy=0;entryX=0.5;entryY=0;entryDx=0;entryDy=0;" parent="1" source="H1ZyYy_X_Dz8UiBZ8473-11" target="5z1vc-06m02WusBXPSte-6" edge="1">
          <mxGeometry relative="1" as="geometry">
            <Array as="points">
              <mxPoint x="323" y="943" />
              <mxPoint x="923" y="943" />
            </Array>
          </mxGeometry>
        </mxCell>
        <mxCell id="5z1vc-06m02WusBXPSte-25" style="edgeStyle=orthogonalEdgeStyle;rounded=0;orthogonalLoop=1;jettySize=auto;html=1;exitX=0.5;exitY=0;exitDx=0;exitDy=0;entryX=0.5;entryY=0;entryDx=0;entryDy=0;" parent="1" source="H1ZyYy_X_Dz8UiBZ8473-11" target="5z1vc-06m02WusBXPSte-7" edge="1">
          <mxGeometry relative="1" as="geometry">
            <Array as="points">
              <mxPoint x="323" y="943" />
              <mxPoint x="1023" y="943" />
            </Array>
          </mxGeometry>
        </mxCell>
        <mxCell id="5z1vc-06m02WusBXPSte-26" style="edgeStyle=orthogonalEdgeStyle;rounded=0;orthogonalLoop=1;jettySize=auto;html=1;exitX=0.5;exitY=0;exitDx=0;exitDy=0;entryX=0.5;entryY=0;entryDx=0;entryDy=0;" parent="1" source="H1ZyYy_X_Dz8UiBZ8473-11" target="5z1vc-06m02WusBXPSte-8" edge="1">
          <mxGeometry relative="1" as="geometry">
            <Array as="points">
              <mxPoint x="323" y="943" />
              <mxPoint x="1123" y="943" />
            </Array>
          </mxGeometry>
        </mxCell>
        <mxCell id="5z1vc-06m02WusBXPSte-27" style="edgeStyle=orthogonalEdgeStyle;rounded=0;orthogonalLoop=1;jettySize=auto;html=1;exitX=0.5;exitY=0;exitDx=0;exitDy=0;entryX=0.5;entryY=0;entryDx=0;entryDy=0;" parent="1" source="H1ZyYy_X_Dz8UiBZ8473-11" target="5z1vc-06m02WusBXPSte-9" edge="1">
          <mxGeometry relative="1" as="geometry">
            <Array as="points">
              <mxPoint x="323" y="943" />
              <mxPoint x="1223" y="943" />
            </Array>
          </mxGeometry>
        </mxCell>
        <mxCell id="5z1vc-06m02WusBXPSte-28" style="edgeStyle=orthogonalEdgeStyle;rounded=0;orthogonalLoop=1;jettySize=auto;html=1;exitX=0.5;exitY=0;exitDx=0;exitDy=0;entryX=0.5;entryY=0;entryDx=0;entryDy=0;" parent="1" source="H1ZyYy_X_Dz8UiBZ8473-11" target="5z1vc-06m02WusBXPSte-10" edge="1">
          <mxGeometry relative="1" as="geometry">
            <Array as="points">
              <mxPoint x="323" y="943" />
              <mxPoint x="1323" y="943" />
            </Array>
          </mxGeometry>
        </mxCell>
        <mxCell id="5z1vc-06m02WusBXPSte-29" style="edgeStyle=orthogonalEdgeStyle;rounded=0;orthogonalLoop=1;jettySize=auto;html=1;exitX=0.5;exitY=0;exitDx=0;exitDy=0;entryX=0.5;entryY=0;entryDx=0;entryDy=0;" parent="1" source="H1ZyYy_X_Dz8UiBZ8473-11" target="5z1vc-06m02WusBXPSte-11" edge="1">
          <mxGeometry relative="1" as="geometry">
            <Array as="points">
              <mxPoint x="323" y="943" />
              <mxPoint x="1423" y="943" />
            </Array>
          </mxGeometry>
        </mxCell>
        <mxCell id="5z1vc-06m02WusBXPSte-31" style="edgeStyle=orthogonalEdgeStyle;rounded=0;orthogonalLoop=1;jettySize=auto;html=1;exitX=0.5;exitY=0;exitDx=0;exitDy=0;" parent="1" source="H1ZyYy_X_Dz8UiBZ8473-11" edge="1">
          <mxGeometry relative="1" as="geometry">
            <mxPoint x="423" y="941" as="targetPoint" />
            <Array as="points">
              <mxPoint x="323" y="895" />
              <mxPoint x="423" y="895" />
            </Array>
          </mxGeometry>
        </mxCell>
        <mxCell id="H1ZyYy_X_Dz8UiBZ8473-11" value="&lt;u&gt;index&lt;/u&gt;" style="whiteSpace=wrap;html=1;align=center;" parent="1" vertex="1">
          <mxGeometry x="273" y="992" width="100" height="40" as="geometry" />
        </mxCell>
        <mxCell id="H1ZyYy_X_Dz8UiBZ8473-12" value="source_ref" style="whiteSpace=wrap;html=1;align=center;" parent="1" vertex="1">
          <mxGeometry x="373" y="992" width="100" height="40" as="geometry" />
        </mxCell>
        <mxCell id="5z1vc-06m02WusBXPSte-2" value="p1_x" style="whiteSpace=wrap;html=1;align=center;" parent="1" vertex="1">
          <mxGeometry x="473" y="992" width="100" height="40" as="geometry" />
        </mxCell>
        <mxCell id="5z1vc-06m02WusBXPSte-3" value="P1_y" style="whiteSpace=wrap;html=1;align=center;" parent="1" vertex="1">
          <mxGeometry x="573" y="992" width="100" height="40" as="geometry" />
        </mxCell>
        <mxCell id="5z1vc-06m02WusBXPSte-4" value="p1_h" style="whiteSpace=wrap;html=1;align=center;" parent="1" vertex="1">
          <mxGeometry x="673" y="992" width="100" height="40" as="geometry" />
        </mxCell>
        <mxCell id="5z1vc-06m02WusBXPSte-5" value="p1_w" style="whiteSpace=wrap;html=1;align=center;" parent="1" vertex="1">
          <mxGeometry x="773" y="992" width="100" height="40" as="geometry" />
        </mxCell>
        <mxCell id="5z1vc-06m02WusBXPSte-6" value="p1_predict" style="whiteSpace=wrap;html=1;align=center;" parent="1" vertex="1">
          <mxGeometry x="873" y="992" width="100" height="40" as="geometry" />
        </mxCell>
        <mxCell id="5z1vc-06m02WusBXPSte-7" value="p2_x" style="whiteSpace=wrap;html=1;align=center;" parent="1" vertex="1">
          <mxGeometry x="973" y="992" width="100" height="40" as="geometry" />
        </mxCell>
        <mxCell id="5z1vc-06m02WusBXPSte-8" value="P2_y" style="whiteSpace=wrap;html=1;align=center;" parent="1" vertex="1">
          <mxGeometry x="1073" y="992" width="100" height="40" as="geometry" />
        </mxCell>
        <mxCell id="5z1vc-06m02WusBXPSte-9" value="p2_h" style="whiteSpace=wrap;html=1;align=center;" parent="1" vertex="1">
          <mxGeometry x="1173" y="992" width="100" height="40" as="geometry" />
        </mxCell>
        <mxCell id="5z1vc-06m02WusBXPSte-10" value="p2_w" style="whiteSpace=wrap;html=1;align=center;" parent="1" vertex="1">
          <mxGeometry x="1273" y="992" width="100" height="40" as="geometry" />
        </mxCell>
        <mxCell id="5z1vc-06m02WusBXPSte-11" value="p2_predict" style="whiteSpace=wrap;html=1;align=center;" parent="1" vertex="1">
          <mxGeometry x="1373" y="992" width="100" height="40" as="geometry" />
        </mxCell>
        <mxCell id="5z1vc-06m02WusBXPSte-38" style="edgeStyle=orthogonalEdgeStyle;rounded=0;orthogonalLoop=1;jettySize=auto;html=1;" parent="1" edge="1">
          <mxGeometry relative="1" as="geometry">
            <mxPoint x="523" y="908" as="sourcePoint" />
            <mxPoint x="623" y="938" as="targetPoint" />
            <Array as="points">
              <mxPoint x="523" y="862" />
              <mxPoint x="623" y="862" />
            </Array>
          </mxGeometry>
        </mxCell>
        <mxCell id="5z1vc-06m02WusBXPSte-39" style="edgeStyle=orthogonalEdgeStyle;rounded=0;orthogonalLoop=1;jettySize=auto;html=1;" parent="1" edge="1">
          <mxGeometry relative="1" as="geometry">
            <mxPoint x="623" y="908" as="sourcePoint" />
            <mxPoint x="723" y="938" as="targetPoint" />
            <Array as="points">
              <mxPoint x="623" y="862" />
              <mxPoint x="723" y="862" />
            </Array>
          </mxGeometry>
        </mxCell>
        <mxCell id="5z1vc-06m02WusBXPSte-40" style="edgeStyle=orthogonalEdgeStyle;rounded=0;orthogonalLoop=1;jettySize=auto;html=1;" parent="1" edge="1">
          <mxGeometry relative="1" as="geometry">
            <mxPoint x="723" y="908" as="sourcePoint" />
            <mxPoint x="823" y="938" as="targetPoint" />
            <Array as="points">
              <mxPoint x="723" y="862" />
              <mxPoint x="823" y="862" />
            </Array>
          </mxGeometry>
        </mxCell>
        <mxCell id="5z1vc-06m02WusBXPSte-41" style="edgeStyle=orthogonalEdgeStyle;rounded=0;orthogonalLoop=1;jettySize=auto;html=1;" parent="1" edge="1">
          <mxGeometry relative="1" as="geometry">
            <mxPoint x="823" y="908" as="sourcePoint" />
            <mxPoint x="923" y="938" as="targetPoint" />
            <Array as="points">
              <mxPoint x="823" y="862" />
              <mxPoint x="923" y="862" />
            </Array>
          </mxGeometry>
        </mxCell>
        <mxCell id="5z1vc-06m02WusBXPSte-42" style="edgeStyle=orthogonalEdgeStyle;rounded=0;orthogonalLoop=1;jettySize=auto;html=1;" parent="1" edge="1">
          <mxGeometry relative="1" as="geometry">
            <mxPoint x="923" y="908" as="sourcePoint" />
            <mxPoint x="1023" y="938" as="targetPoint" />
            <Array as="points">
              <mxPoint x="923" y="862" />
              <mxPoint x="1023" y="862" />
            </Array>
          </mxGeometry>
        </mxCell>
        <mxCell id="5z1vc-06m02WusBXPSte-43" style="edgeStyle=orthogonalEdgeStyle;rounded=0;orthogonalLoop=1;jettySize=auto;html=1;" parent="1" edge="1">
          <mxGeometry relative="1" as="geometry">
            <mxPoint x="1023" y="908" as="sourcePoint" />
            <mxPoint x="1123" y="938" as="targetPoint" />
            <Array as="points">
              <mxPoint x="1023" y="862" />
              <mxPoint x="1123" y="862" />
            </Array>
          </mxGeometry>
        </mxCell>
        <mxCell id="5z1vc-06m02WusBXPSte-44" style="edgeStyle=orthogonalEdgeStyle;rounded=0;orthogonalLoop=1;jettySize=auto;html=1;" parent="1" edge="1">
          <mxGeometry relative="1" as="geometry">
            <mxPoint x="1123" y="908" as="sourcePoint" />
            <mxPoint x="1223" y="938" as="targetPoint" />
            <Array as="points">
              <mxPoint x="1123" y="862" />
              <mxPoint x="1223" y="862" />
            </Array>
          </mxGeometry>
        </mxCell>
        <mxCell id="5z1vc-06m02WusBXPSte-45" style="edgeStyle=orthogonalEdgeStyle;rounded=0;orthogonalLoop=1;jettySize=auto;html=1;" parent="1" edge="1">
          <mxGeometry relative="1" as="geometry">
            <mxPoint x="1223" y="908" as="sourcePoint" />
            <mxPoint x="1323" y="938" as="targetPoint" />
            <Array as="points">
              <mxPoint x="1223" y="862" />
              <mxPoint x="1323" y="862" />
            </Array>
          </mxGeometry>
        </mxCell>
        <mxCell id="5z1vc-06m02WusBXPSte-46" style="edgeStyle=orthogonalEdgeStyle;rounded=0;orthogonalLoop=1;jettySize=auto;html=1;" parent="1" edge="1">
          <mxGeometry relative="1" as="geometry">
            <mxPoint x="1323" y="908" as="sourcePoint" />
            <mxPoint x="1423" y="938" as="targetPoint" />
            <Array as="points">
              <mxPoint x="1323" y="862" />
              <mxPoint x="1423" y="862" />
            </Array>
          </mxGeometry>
        </mxCell>
        <mxCell id="8pLlDTbQzt-v3fuAkXPi-1" value="m_name" style="whiteSpace=wrap;html=1;align=center;" parent="1" vertex="1">
          <mxGeometry x="964" y="559" width="100" height="40" as="geometry" />
        </mxCell>
        <mxCell id="qCjA1j6D_E8uQ2qPz6T5-1" value="user:" style="text;strokeColor=none;fillColor=none;spacingLeft=4;spacingRight=4;overflow=hidden;rotatable=0;points=[[0,0.5],[1,0.5]];portConstraint=eastwest;fontSize=12;whiteSpace=wrap;html=1;fontStyle=1" parent="1" vertex="1">
          <mxGeometry x="90" y="173" width="40" height="30" as="geometry" />
        </mxCell>
        <mxCell id="qCjA1j6D_E8uQ2qPz6T5-2" value="model:" style="text;strokeColor=none;fillColor=none;spacingLeft=4;spacingRight=4;overflow=hidden;rotatable=0;points=[[0,0.5],[1,0.5]];portConstraint=eastwest;fontSize=12;whiteSpace=wrap;html=1;fontStyle=1" parent="1" vertex="1">
          <mxGeometry x="90" y="379" width="50" height="30" as="geometry" />
        </mxCell>
        <mxCell id="qCjA1j6D_E8uQ2qPz6T5-3" value="task:" style="text;strokeColor=none;fillColor=none;spacingLeft=4;spacingRight=4;overflow=hidden;rotatable=0;points=[[0,0.5],[1,0.5]];portConstraint=eastwest;fontSize=12;whiteSpace=wrap;html=1;fontStyle=1" parent="1" vertex="1">
          <mxGeometry x="90" y="570" width="50" height="30" as="geometry" />
        </mxCell>
        <mxCell id="qCjA1j6D_E8uQ2qPz6T5-4" value="input:" style="text;strokeColor=none;fillColor=none;spacingLeft=4;spacingRight=4;overflow=hidden;rotatable=0;points=[[0,0.5],[1,0.5]];portConstraint=eastwest;fontSize=12;whiteSpace=wrap;html=1;fontStyle=1" parent="1" vertex="1">
          <mxGeometry x="85" y="776.94" width="50" height="30" as="geometry" />
        </mxCell>
        <mxCell id="qCjA1j6D_E8uQ2qPz6T5-5" value="output:" style="text;strokeColor=none;fillColor=none;spacingLeft=4;spacingRight=4;overflow=hidden;rotatable=0;points=[[0,0.5],[1,0.5]];portConstraint=eastwest;fontSize=12;whiteSpace=wrap;html=1;fontStyle=1" parent="1" vertex="1">
          <mxGeometry x="90" y="1002" width="50" height="30" as="geometry" />
        </mxCell>
        <mxCell id="6zZMb-FtUweu8SJ56ZVX-1" style="edgeStyle=orthogonalEdgeStyle;rounded=0;orthogonalLoop=1;jettySize=auto;html=1;" parent="1" edge="1">
          <mxGeometry relative="1" as="geometry">
            <mxPoint x="423" y="888" as="sourcePoint" />
            <mxPoint x="523" y="938" as="targetPoint" />
            <Array as="points">
              <mxPoint x="423" y="862" />
              <mxPoint x="523" y="862" />
            </Array>
          </mxGeometry>
        </mxCell>
        <mxCell id="5U3YaLMB05HpRV27On0j-2" style="edgeStyle=orthogonalEdgeStyle;rounded=0;orthogonalLoop=1;jettySize=auto;html=1;exitX=0.5;exitY=0;exitDx=0;exitDy=0;entryX=0.5;entryY=0;entryDx=0;entryDy=0;" edge="1" parent="1" source="5U3YaLMB05HpRV27On0j-1" target="bqwQ9AqwLEj9jlzsBFg9-3">
          <mxGeometry relative="1" as="geometry">
            <Array as="points">
              <mxPoint x="217" y="120" />
              <mxPoint x="317" y="120" />
            </Array>
          </mxGeometry>
        </mxCell>
        <mxCell id="5U3YaLMB05HpRV27On0j-3" style="edgeStyle=orthogonalEdgeStyle;rounded=0;orthogonalLoop=1;jettySize=auto;html=1;exitX=0.5;exitY=0;exitDx=0;exitDy=0;entryX=0.5;entryY=0;entryDx=0;entryDy=0;" edge="1" parent="1" source="5U3YaLMB05HpRV27On0j-1" target="bqwQ9AqwLEj9jlzsBFg9-4">
          <mxGeometry relative="1" as="geometry">
            <Array as="points">
              <mxPoint x="217" y="120" />
              <mxPoint x="417" y="120" />
            </Array>
          </mxGeometry>
        </mxCell>
        <mxCell id="5U3YaLMB05HpRV27On0j-4" style="edgeStyle=orthogonalEdgeStyle;rounded=0;orthogonalLoop=1;jettySize=auto;html=1;exitX=0.5;exitY=0;exitDx=0;exitDy=0;entryX=0.5;entryY=0;entryDx=0;entryDy=0;" edge="1" parent="1" source="5U3YaLMB05HpRV27On0j-1" target="bqwQ9AqwLEj9jlzsBFg9-5">
          <mxGeometry relative="1" as="geometry">
            <Array as="points">
              <mxPoint x="217" y="120" />
              <mxPoint x="517" y="120" />
            </Array>
          </mxGeometry>
        </mxCell>
        <mxCell id="5U3YaLMB05HpRV27On0j-5" style="edgeStyle=orthogonalEdgeStyle;rounded=0;orthogonalLoop=1;jettySize=auto;html=1;exitX=0.5;exitY=0;exitDx=0;exitDy=0;entryX=0.5;entryY=0;entryDx=0;entryDy=0;" edge="1" parent="1" source="5U3YaLMB05HpRV27On0j-1" target="dhfBxoXllCMKDyNklm6e-1">
          <mxGeometry relative="1" as="geometry">
            <Array as="points">
              <mxPoint x="217" y="120" />
              <mxPoint x="617" y="120" />
            </Array>
          </mxGeometry>
        </mxCell>
        <mxCell id="5U3YaLMB05HpRV27On0j-6" style="edgeStyle=orthogonalEdgeStyle;rounded=0;orthogonalLoop=1;jettySize=auto;html=1;exitX=0.5;exitY=0;exitDx=0;exitDy=0;entryX=0.5;entryY=0;entryDx=0;entryDy=0;" edge="1" parent="1" source="5U3YaLMB05HpRV27On0j-1" target="dhfBxoXllCMKDyNklm6e-2">
          <mxGeometry relative="1" as="geometry">
            <Array as="points">
              <mxPoint x="217" y="120" />
              <mxPoint x="717" y="120" />
            </Array>
          </mxGeometry>
        </mxCell>
        <mxCell id="5U3YaLMB05HpRV27On0j-7" style="edgeStyle=orthogonalEdgeStyle;rounded=0;orthogonalLoop=1;jettySize=auto;html=1;exitX=0.5;exitY=0;exitDx=0;exitDy=0;entryX=0.5;entryY=0;entryDx=0;entryDy=0;" edge="1" parent="1" source="5U3YaLMB05HpRV27On0j-1" target="dhfBxoXllCMKDyNklm6e-3">
          <mxGeometry relative="1" as="geometry">
            <Array as="points">
              <mxPoint x="217" y="120" />
              <mxPoint x="814" y="120" />
            </Array>
          </mxGeometry>
        </mxCell>
        <mxCell id="5U3YaLMB05HpRV27On0j-1" value="&lt;u&gt;uid&lt;/u&gt;" style="whiteSpace=wrap;html=1;align=center;" vertex="1" parent="1">
          <mxGeometry x="167" y="168" width="100" height="40" as="geometry" />
        </mxCell>
      </root>
    </mxGraphModel>
  </diagram>
  <diagram id="TwocxhiMT32BXbGrFThx" name="FK">
    <mxGraphModel dx="3004" dy="1206" grid="0" gridSize="10" guides="1" tooltips="1" connect="1" arrows="1" fold="1" page="1" pageScale="1" pageWidth="1654" pageHeight="1169" math="0" shadow="0">
      <root>
        <mxCell id="0" />
        <mxCell id="1" parent="0" />
        <mxCell id="SfBPiBdUsy5S0iuzJykQ-7" value="password" style="whiteSpace=wrap;html=1;align=center;" parent="1" vertex="1">
          <mxGeometry x="391.89" y="182" width="100" height="40" as="geometry" />
        </mxCell>
        <mxCell id="SfBPiBdUsy5S0iuzJykQ-8" value="role" style="whiteSpace=wrap;html=1;align=center;" parent="1" vertex="1">
          <mxGeometry x="491.89" y="182" width="100" height="40" as="geometry" />
        </mxCell>
        <mxCell id="SfBPiBdUsy5S0iuzJykQ-9" value="is_active" style="whiteSpace=wrap;html=1;align=center;" parent="1" vertex="1">
          <mxGeometry x="591.89" y="182" width="100" height="40" as="geometry" />
        </mxCell>
        <mxCell id="SfBPiBdUsy5S0iuzJykQ-10" value="last_login" style="whiteSpace=wrap;html=1;align=center;" parent="1" vertex="1">
          <mxGeometry x="691.89" y="182" width="100" height="40" as="geometry" />
        </mxCell>
        <mxCell id="SfBPiBdUsy5S0iuzJykQ-11" value="create_at" style="whiteSpace=wrap;html=1;align=center;" parent="1" vertex="1">
          <mxGeometry x="788.89" y="182" width="100" height="40" as="geometry" />
        </mxCell>
        <mxCell id="SfBPiBdUsy5S0iuzJykQ-16" value="&lt;u&gt;name&lt;/u&gt;" style="whiteSpace=wrap;html=1;align=center;" parent="1" vertex="1">
          <mxGeometry x="191.89" y="388" width="100" height="40" as="geometry" />
        </mxCell>
        <mxCell id="SfBPiBdUsy5S0iuzJykQ-19" value="version" style="whiteSpace=wrap;html=1;align=center;" parent="1" vertex="1">
          <mxGeometry x="291.89" y="388" width="100" height="40" as="geometry" />
        </mxCell>
        <mxCell id="SfBPiBdUsy5S0iuzJykQ-20" value="source_red" style="whiteSpace=wrap;html=1;align=center;" parent="1" vertex="1">
          <mxGeometry x="391.89" y="388" width="100" height="40" as="geometry" />
        </mxCell>
        <mxCell id="SfBPiBdUsy5S0iuzJykQ-30" value="&lt;u&gt;tid&lt;/u&gt;" style="whiteSpace=wrap;html=1;align=center;" parent="1" vertex="1">
          <mxGeometry x="191.89" y="578" width="100" height="40" as="geometry" />
        </mxCell>
        <mxCell id="SfBPiBdUsy5S0iuzJykQ-31" value="name" style="whiteSpace=wrap;html=1;align=center;" parent="1" vertex="1">
          <mxGeometry x="291.89" y="578" width="100" height="40" as="geometry" />
        </mxCell>
        <mxCell id="SfBPiBdUsy5S0iuzJykQ-32" value="create_at" style="whiteSpace=wrap;html=1;align=center;" parent="1" vertex="1">
          <mxGeometry x="391.89" y="578" width="100" height="40" as="geometry" />
        </mxCell>
        <mxCell id="SfBPiBdUsy5S0iuzJykQ-90" style="edgeStyle=orthogonalEdgeStyle;rounded=0;orthogonalLoop=1;jettySize=auto;html=1;exitX=0.5;exitY=0;exitDx=0;exitDy=0;entryX=0.5;entryY=1;entryDx=0;entryDy=0;" parent="1" source="SfBPiBdUsy5S0iuzJykQ-33" edge="1">
          <mxGeometry relative="1" as="geometry">
            <mxPoint x="241.8900000000001" y="221.9999999999999" as="targetPoint" />
            <Array as="points">
              <mxPoint x="542" y="535" />
              <mxPoint x="168" y="535" />
              <mxPoint x="168" y="302" />
              <mxPoint x="242" y="302" />
            </Array>
          </mxGeometry>
        </mxCell>
        <mxCell id="SfBPiBdUsy5S0iuzJykQ-33" value="uid" style="whiteSpace=wrap;html=1;align=center;" parent="1" vertex="1">
          <mxGeometry x="491.89" y="578" width="100" height="40" as="geometry" />
        </mxCell>
        <mxCell id="SfBPiBdUsy5S0iuzJykQ-35" value="status" style="whiteSpace=wrap;html=1;align=center;" parent="1" vertex="1">
          <mxGeometry x="591.89" y="578" width="100" height="40" as="geometry" />
        </mxCell>
        <mxCell id="SfBPiBdUsy5S0iuzJykQ-36" value="task_type" style="whiteSpace=wrap;html=1;align=center;" parent="1" vertex="1">
          <mxGeometry x="688.89" y="578" width="100" height="40" as="geometry" />
        </mxCell>
        <mxCell id="SfBPiBdUsy5S0iuzJykQ-37" value="start_time" style="whiteSpace=wrap;html=1;align=center;" parent="1" vertex="1">
          <mxGeometry x="788.89" y="578" width="100" height="40" as="geometry" />
        </mxCell>
        <mxCell id="SfBPiBdUsy5S0iuzJykQ-38" value="finish_time" style="whiteSpace=wrap;html=1;align=center;" parent="1" vertex="1">
          <mxGeometry x="888.89" y="578" width="100" height="40" as="geometry" />
        </mxCell>
        <mxCell id="SfBPiBdUsy5S0iuzJykQ-87" style="edgeStyle=orthogonalEdgeStyle;rounded=0;orthogonalLoop=1;jettySize=auto;html=1;exitX=0.5;exitY=0;exitDx=0;exitDy=0;entryX=0.5;entryY=1;entryDx=0;entryDy=0;" parent="1" source="SfBPiBdUsy5S0iuzJykQ-43" target="SfBPiBdUsy5S0iuzJykQ-30" edge="1">
          <mxGeometry relative="1" as="geometry" />
        </mxCell>
        <mxCell id="SfBPiBdUsy5S0iuzJykQ-43" value="&lt;u&gt;tid&lt;/u&gt;" style="whiteSpace=wrap;html=1;align=center;" parent="1" vertex="1">
          <mxGeometry x="191.89" y="785.94" width="100" height="40" as="geometry" />
        </mxCell>
        <mxCell id="SfBPiBdUsy5S0iuzJykQ-45" value="&lt;u&gt;index&lt;/u&gt;" style="whiteSpace=wrap;html=1;align=center;" parent="1" vertex="1">
          <mxGeometry x="291.89" y="785.94" width="100" height="40" as="geometry" />
        </mxCell>
        <mxCell id="SfBPiBdUsy5S0iuzJykQ-46" value="source_ref" style="whiteSpace=wrap;html=1;align=center;" parent="1" vertex="1">
          <mxGeometry x="391.89" y="785.94" width="100" height="40" as="geometry" />
        </mxCell>
        <mxCell id="SfBPiBdUsy5S0iuzJykQ-88" style="edgeStyle=orthogonalEdgeStyle;rounded=0;orthogonalLoop=1;jettySize=auto;html=1;exitX=0.5;exitY=0;exitDx=0;exitDy=0;entryX=0.5;entryY=1;entryDx=0;entryDy=0;" parent="1" source="SfBPiBdUsy5S0iuzJykQ-48" target="SfBPiBdUsy5S0iuzJykQ-30" edge="1">
          <mxGeometry relative="1" as="geometry">
            <Array as="points">
              <mxPoint x="248" y="947" />
              <mxPoint x="160" y="947" />
              <mxPoint x="160" y="700" />
              <mxPoint x="242" y="700" />
            </Array>
          </mxGeometry>
        </mxCell>
        <mxCell id="SfBPiBdUsy5S0iuzJykQ-48" value="&lt;u&gt;tid&lt;/u&gt;" style="whiteSpace=wrap;html=1;align=center;" parent="1" vertex="1">
          <mxGeometry x="197.89" y="1011" width="100" height="40" as="geometry" />
        </mxCell>
        <mxCell id="SfBPiBdUsy5S0iuzJykQ-62" value="&lt;u&gt;index&lt;/u&gt;" style="whiteSpace=wrap;html=1;align=center;" parent="1" vertex="1">
          <mxGeometry x="297.89" y="1011" width="100" height="40" as="geometry" />
        </mxCell>
        <mxCell id="SfBPiBdUsy5S0iuzJykQ-64" value="source_ref" style="whiteSpace=wrap;html=1;align=center;" parent="1" vertex="1">
          <mxGeometry x="397.89" y="1011" width="100" height="40" as="geometry" />
        </mxCell>
        <mxCell id="SfBPiBdUsy5S0iuzJykQ-66" value="p1_x" style="whiteSpace=wrap;html=1;align=center;" parent="1" vertex="1">
          <mxGeometry x="497.89" y="1011" width="100" height="40" as="geometry" />
        </mxCell>
        <mxCell id="SfBPiBdUsy5S0iuzJykQ-67" value="P1_y" style="whiteSpace=wrap;html=1;align=center;" parent="1" vertex="1">
          <mxGeometry x="597.89" y="1011" width="100" height="40" as="geometry" />
        </mxCell>
        <mxCell id="SfBPiBdUsy5S0iuzJykQ-68" value="p1_h" style="whiteSpace=wrap;html=1;align=center;" parent="1" vertex="1">
          <mxGeometry x="697.89" y="1011" width="100" height="40" as="geometry" />
        </mxCell>
        <mxCell id="SfBPiBdUsy5S0iuzJykQ-69" value="p1_w" style="whiteSpace=wrap;html=1;align=center;" parent="1" vertex="1">
          <mxGeometry x="797.89" y="1011" width="100" height="40" as="geometry" />
        </mxCell>
        <mxCell id="SfBPiBdUsy5S0iuzJykQ-70" value="p1_predict" style="whiteSpace=wrap;html=1;align=center;" parent="1" vertex="1">
          <mxGeometry x="897.89" y="1011" width="100" height="40" as="geometry" />
        </mxCell>
        <mxCell id="SfBPiBdUsy5S0iuzJykQ-71" value="p2_x" style="whiteSpace=wrap;html=1;align=center;" parent="1" vertex="1">
          <mxGeometry x="997.8900000000001" y="1011" width="100" height="40" as="geometry" />
        </mxCell>
        <mxCell id="SfBPiBdUsy5S0iuzJykQ-72" value="P2_y" style="whiteSpace=wrap;html=1;align=center;" parent="1" vertex="1">
          <mxGeometry x="1097.89" y="1011" width="100" height="40" as="geometry" />
        </mxCell>
        <mxCell id="SfBPiBdUsy5S0iuzJykQ-73" value="p2_h" style="whiteSpace=wrap;html=1;align=center;" parent="1" vertex="1">
          <mxGeometry x="1197.89" y="1011" width="100" height="40" as="geometry" />
        </mxCell>
        <mxCell id="SfBPiBdUsy5S0iuzJykQ-74" value="p2_w" style="whiteSpace=wrap;html=1;align=center;" parent="1" vertex="1">
          <mxGeometry x="1297.89" y="1011" width="100" height="40" as="geometry" />
        </mxCell>
        <mxCell id="SfBPiBdUsy5S0iuzJykQ-75" value="p2_predict" style="whiteSpace=wrap;html=1;align=center;" parent="1" vertex="1">
          <mxGeometry x="1397.89" y="1011" width="100" height="40" as="geometry" />
        </mxCell>
        <mxCell id="SfBPiBdUsy5S0iuzJykQ-89" style="edgeStyle=orthogonalEdgeStyle;rounded=0;orthogonalLoop=1;jettySize=auto;html=1;exitX=0.5;exitY=0;exitDx=0;exitDy=0;entryX=0.5;entryY=1;entryDx=0;entryDy=0;" parent="1" source="SfBPiBdUsy5S0iuzJykQ-86" target="SfBPiBdUsy5S0iuzJykQ-16" edge="1">
          <mxGeometry relative="1" as="geometry" />
        </mxCell>
        <mxCell id="SfBPiBdUsy5S0iuzJykQ-86" value="m_name" style="whiteSpace=wrap;html=1;align=center;" parent="1" vertex="1">
          <mxGeometry x="988.89" y="578" width="100" height="40" as="geometry" />
        </mxCell>
        <mxCell id="tndaSfdF5jGLwI-s_1QC-1" value="user:" style="text;strokeColor=none;fillColor=none;spacingLeft=4;spacingRight=4;overflow=hidden;rotatable=0;points=[[0,0.5],[1,0.5]];portConstraint=eastwest;fontSize=12;whiteSpace=wrap;html=1;fontStyle=1" parent="1" vertex="1">
          <mxGeometry x="84" y="192" width="40" height="30" as="geometry" />
        </mxCell>
        <mxCell id="tndaSfdF5jGLwI-s_1QC-2" value="model:" style="text;strokeColor=none;fillColor=none;spacingLeft=4;spacingRight=4;overflow=hidden;rotatable=0;points=[[0,0.5],[1,0.5]];portConstraint=eastwest;fontSize=12;whiteSpace=wrap;html=1;fontStyle=1" parent="1" vertex="1">
          <mxGeometry x="84" y="398" width="50" height="30" as="geometry" />
        </mxCell>
        <mxCell id="tndaSfdF5jGLwI-s_1QC-3" value="task:" style="text;strokeColor=none;fillColor=none;spacingLeft=4;spacingRight=4;overflow=hidden;rotatable=0;points=[[0,0.5],[1,0.5]];portConstraint=eastwest;fontSize=12;whiteSpace=wrap;html=1;fontStyle=1" parent="1" vertex="1">
          <mxGeometry x="84" y="589" width="50" height="30" as="geometry" />
        </mxCell>
        <mxCell id="tndaSfdF5jGLwI-s_1QC-4" value="input:" style="text;strokeColor=none;fillColor=none;spacingLeft=4;spacingRight=4;overflow=hidden;rotatable=0;points=[[0,0.5],[1,0.5]];portConstraint=eastwest;fontSize=12;whiteSpace=wrap;html=1;fontStyle=1" parent="1" vertex="1">
          <mxGeometry x="79" y="795.94" width="50" height="30" as="geometry" />
        </mxCell>
        <mxCell id="tndaSfdF5jGLwI-s_1QC-5" value="output:" style="text;strokeColor=none;fillColor=none;spacingLeft=4;spacingRight=4;overflow=hidden;rotatable=0;points=[[0,0.5],[1,0.5]];portConstraint=eastwest;fontSize=12;whiteSpace=wrap;html=1;fontStyle=1" parent="1" vertex="1">
          <mxGeometry x="84" y="1021" width="50" height="30" as="geometry" />
        </mxCell>
        <mxCell id="x6L9dc5UqjEztFdICqyE-1" value="&lt;u&gt;uid&lt;/u&gt;" style="whiteSpace=wrap;html=1;align=center;" parent="1" vertex="1">
          <mxGeometry x="191.89" y="182" width="100" height="40" as="geometry" />
        </mxCell>
        <mxCell id="x6L9dc5UqjEztFdICqyE-2" value="email" style="whiteSpace=wrap;html=1;align=center;" parent="1" vertex="1">
          <mxGeometry x="291.89" y="182" width="100" height="40" as="geometry" />
        </mxCell>
      </root>
    </mxGraphModel>
  </diagram>
</mxfile>
